<svg width="92" height="89" viewBox="0 0 92 89" fill="none" xmlns="http://www.w3.org/2000/svg">
<path d="M46.3581 0.516174C21.1522 0.516174 0.71582 20.5158 0.71582 45.1832C0.71582 66.1134 15.4431 83.6266 35.2975 88.473C35.0845 87.8699 34.9476 87.1702 34.9476 86.3029V78.6685C33.0952 78.6685 29.9916 78.6685 29.2118 78.6685C26.0891 78.6685 23.3126 77.3546 21.9661 74.9128C20.4713 72.1993 20.2127 68.049 16.5081 65.5104C15.4088 64.6654 16.2456 63.7014 17.5122 63.8317C19.8514 64.4793 21.7912 66.0501 23.6169 68.3802C25.4349 70.7141 26.2907 71.2427 29.6873 71.2427C31.3342 71.2427 33.7989 71.1496 36.119 70.7923C37.3666 67.6916 39.5232 64.8367 42.159 63.4892C26.9601 61.9594 19.7068 54.5595 19.7068 44.5132C19.7068 40.1879 21.5896 36.0041 24.7883 32.4791C23.7386 28.9802 22.4187 21.8447 25.1915 19.1274C32.0303 19.1274 36.1647 23.4676 37.1574 24.6401C40.5654 23.4974 44.308 22.8497 48.2409 22.8497C52.1813 22.8497 55.9392 23.4973 59.3548 24.6475C60.3361 23.4825 64.4743 19.1274 71.3283 19.1274C74.1125 21.8484 72.7774 29.0137 71.7162 32.5052C74.896 36.0227 76.7673 40.1954 76.7673 44.5132C76.7673 54.5521 69.5254 61.9482 54.3493 63.4855C58.5256 65.6183 61.5722 71.6112 61.5722 76.1263V86.3029C61.5722 86.69 61.4848 86.9692 61.4391 87.3005C79.2244 81.1997 92.0005 64.6729 92.0005 45.1832C92.0005 20.5158 71.5641 0.516174 46.3581 0.516174Z" fill="#19E2FE"/>
</svg>
