<svg width="32" height="33" viewBox="0 0 32 33" fill="none" xmlns="http://www.w3.org/2000/svg">
<g clip-path="url(#clip0_161_59)">
<path fill-rule="evenodd" clip-rule="evenodd" d="M16.4715 0C20.3519 0 20.9171 0.0214498 22.5523 0.0989998C24.2514 0.17985 25.4123 0.4587 26.4279 0.86625C27.4938 1.28019 28.4594 1.92944 29.2575 2.7687C30.0697 3.59332 30.698 4.59113 31.0987 5.6925C31.4931 6.7419 31.763 7.94145 31.8412 9.69705C31.9178 11.4576 31.937 12.0186 31.937 16.5V16.632C31.937 20.9929 31.9178 21.5606 31.8412 23.3029C31.763 25.0585 31.4931 26.2581 31.0987 27.3075C30.698 28.4089 30.0697 29.4066 29.2575 30.2313C28.4594 31.0705 27.4938 31.7198 26.4279 32.1338C25.4123 32.5413 24.2514 32.8202 22.5523 32.901C20.8485 32.9802 20.3055 33 15.9685 33H15.8408C11.6203 33 11.071 32.9802 9.38469 32.901C7.68564 32.8202 6.52473 32.5413 5.50913 32.1338C4.44324 31.7198 3.47757 31.0705 2.67951 30.2313C1.86729 29.4066 1.23895 28.4089 0.838346 27.3075C0.443924 26.2581 0.174057 25.0585 0.0958109 23.3029C0.0207589 21.6133 0 21.0276 0 17.0197V15.9803C0 11.9708 0.0207589 11.3867 0.0958109 9.69705C0.174057 7.94145 0.443924 6.7419 0.838346 5.6925C1.23895 4.59113 1.86729 3.59332 2.67951 2.7687C3.47757 1.92944 4.44324 1.28019 5.50913 0.86625C6.52473 0.4587 7.68564 0.17985 9.38469 0.0989998C11.0199 0.0214498 11.5867 0 15.4655 0H16.4715ZM16.3422 2.9733H15.5948C11.673 2.9733 11.1492 2.99145 9.51563 3.069C7.9587 3.14325 7.11397 3.41055 6.55028 3.6366C5.80455 3.9369 5.2728 4.2933 4.7139 4.8708C4.155 5.4483 3.81009 5.99775 3.51946 6.7683C3.30069 7.35075 3.0404 8.2236 2.97014 9.83235C2.89509 11.5203 2.87752 12.0615 2.87752 16.1139V16.8861C2.87752 20.9385 2.89509 21.4797 2.97014 23.1677C3.042 24.7764 3.30069 25.6493 3.51946 26.2317C3.81009 27.0006 4.1566 27.5517 4.7139 28.1292C5.2728 28.7067 5.80455 29.0631 6.55028 29.3634C7.11397 29.5894 7.9587 29.8584 9.51563 29.931C11.1987 30.0102 11.7033 30.0267 15.9685 30.0267H16.0963C20.2433 30.0267 20.7543 30.0102 22.4198 29.931C23.9783 29.8567 24.823 29.5894 25.3867 29.3634C26.1309 29.0631 26.6642 28.7067 27.2231 28.1292C27.782 27.5517 28.1269 27.0022 28.4175 26.2317C28.6363 25.6493 28.8966 24.7764 28.9669 23.1677C29.0435 21.4269 29.0595 20.9072 29.0595 16.5V16.368C29.0595 12.083 29.0435 11.5549 28.9669 9.834C28.895 8.2236 28.6363 7.35075 28.4175 6.7683C28.1617 6.05149 27.7536 5.40309 27.2231 4.8708C26.708 4.32277 26.0804 3.90103 25.3867 3.6366C24.823 3.41055 23.9783 3.1416 22.4214 3.069C20.7878 2.99145 20.264 2.9733 16.3422 2.9733ZM15.9685 8.02725C17.0453 8.02725 18.1116 8.2464 19.1065 8.6722C20.1013 9.098 21.0053 9.7221 21.7667 10.5089C22.528 11.2956 23.1321 12.2297 23.5441 13.2576C23.9563 14.2856 24.1683 15.3873 24.1683 16.5C24.1683 17.6126 23.9563 18.7145 23.5441 19.7424C23.1321 20.7704 22.528 21.7044 21.7667 22.4911C21.0053 23.2779 20.1013 23.9021 19.1065 24.3278C18.1116 24.7536 17.0453 24.9727 15.9685 24.9727C13.7938 24.9727 11.7081 24.0801 10.1704 22.4911C8.63259 20.9022 7.76868 18.7471 7.76868 16.5C7.76868 14.2529 8.63259 12.0978 10.1704 10.5089C11.7081 8.91992 13.7938 8.02725 15.9685 8.02725ZM15.9685 11.0005C14.5569 11.0005 13.2032 11.5799 12.2051 12.6113C11.2069 13.6426 10.6462 15.0414 10.6462 16.5C10.6462 17.9586 11.2069 19.3573 12.2051 20.3887C13.2032 21.42 14.5569 21.9995 15.9685 21.9995C17.3801 21.9995 18.7338 21.42 19.732 20.3887C20.73 19.3573 21.2908 17.9586 21.2908 16.5C21.2908 15.0414 20.73 13.6426 19.732 12.6113C18.7338 11.5799 17.3801 11.0005 15.9685 11.0005ZM24.4925 5.7123C25.0008 5.7123 25.4881 5.92091 25.8474 6.29223C26.2069 6.66356 26.4087 7.16717 26.4087 7.6923C26.4087 8.21743 26.2069 8.72104 25.8474 9.09237C25.4881 9.46369 25.0008 9.6723 24.4925 9.6723C23.9842 9.6723 23.4969 9.46369 23.1376 9.09237C22.7781 8.72104 22.5763 8.21743 22.5763 7.6923C22.5763 7.16717 22.7781 6.66356 23.1376 6.29223C23.4969 5.92091 23.9842 5.7123 24.4925 5.7123Z" fill="#909090"/>
</g>
<defs>
<clipPath id="clip0_161_59">
<rect width="32" height="33" fill="white"/>
</clipPath>
</defs>
</svg>
