<svg width="93" height="89" viewBox="0 0 93 89" fill="none" xmlns="http://www.w3.org/2000/svg">
<path fill-rule="evenodd" clip-rule="evenodd" d="M48.0029 0.516174C59.094 0.516174 60.7097 0.573346 65.3835 0.780044C70.2398 0.995539 73.558 1.73877 76.4609 2.82504C79.5075 3.92834 82.2675 5.65883 84.5487 7.89575C86.8701 10.0937 88.6661 12.7532 89.8113 15.6887C90.9386 18.4857 91.71 21.683 91.9336 26.3623C92.1527 31.0548 92.2075 32.55 92.2075 44.4946V44.8464C92.2075 56.4699 92.1527 57.9827 91.9336 62.6269C91.71 67.3062 90.9386 70.5034 89.8113 73.3004C88.6661 76.236 86.8701 78.8953 84.5487 81.0934C82.2675 83.3301 79.5075 85.0607 76.4609 86.1641C73.558 87.2504 70.2398 87.9936 65.3835 88.2091C60.5135 88.4202 58.9616 88.473 46.5652 88.473H46.2C34.1368 88.473 32.5667 88.4202 27.7468 88.2091C22.8905 87.9936 19.5723 87.2504 16.6694 86.1641C13.6228 85.0607 10.8627 83.3301 8.58163 81.0934C6.26008 78.8953 4.46412 76.236 3.31907 73.3004C2.19171 70.5034 1.42035 67.3062 1.1967 62.6269C0.982186 58.1235 0.922852 56.5622 0.922852 45.8799V43.1092C0.922852 32.4225 0.982186 30.8657 1.1967 26.3623C1.42035 21.683 2.19171 18.4857 3.31907 15.6887C4.46412 12.7532 6.26008 10.0937 8.58163 7.89575C10.8627 5.65883 13.6228 3.92834 16.6694 2.82504C19.5723 1.73877 22.8905 0.995539 27.7468 0.780044C32.4206 0.573346 34.0409 0.516174 45.1274 0.516174H48.0029ZM47.6332 8.44108H45.4971C34.2874 8.44108 32.7903 8.48946 28.1211 8.69615C23.671 8.89406 21.2565 9.60651 19.6453 10.209C17.5138 11.0094 15.9939 11.9594 14.3965 13.4986C12.799 15.0378 11.8131 16.5023 10.9824 18.5561C10.3571 20.1085 9.61315 22.435 9.41232 26.7229C9.1978 31.2219 9.1476 32.6644 9.1476 43.4655V45.5237C9.1476 56.3248 9.1978 57.7672 9.41232 62.2662C9.61771 66.5541 10.3571 68.8806 10.9824 70.433C11.8131 72.4824 12.8035 73.9513 14.3965 75.4905C15.9939 77.0298 17.5138 77.9797 19.6453 78.7801C21.2565 79.3826 23.671 80.0995 28.1211 80.293C32.9318 80.5041 34.3741 80.548 46.5652 80.548H46.9303C58.7836 80.548 60.2442 80.5041 65.0047 80.293C69.4594 80.0951 71.8738 79.3826 73.485 78.7801C75.6119 77.9797 77.1364 77.0298 78.7339 75.4905C80.3314 73.9513 81.3172 72.4868 82.1479 70.433C82.7732 68.8806 83.5172 66.5541 83.718 62.2662C83.9371 57.6265 83.9827 56.2412 83.9827 44.4946V44.1427C83.9827 32.7215 83.9371 31.3142 83.718 26.7273C83.5126 22.435 82.7732 20.1085 82.1479 18.5561C81.4167 16.6456 80.2501 14.9173 78.7339 13.4986C77.2615 12.0379 75.4677 10.9138 73.485 10.209C71.8738 9.60651 69.4594 8.88966 65.0092 8.69615C60.34 8.48946 58.8429 8.44108 47.6332 8.44108ZM46.5652 21.9117C49.6428 21.9117 52.6908 22.4958 55.5343 23.6307C58.3779 24.7656 60.9617 26.429 63.1379 28.5261C65.3141 30.6231 67.0408 33.1126 68.2183 35.8525C69.3964 38.5924 70.0025 41.5289 70.0025 44.4946C70.0025 47.46 69.3964 50.3969 68.2183 53.1368C67.0408 55.8766 65.3141 58.3662 63.1379 60.4631C60.9617 62.56 58.3779 64.2237 55.5343 65.3584C52.6908 66.4934 49.6428 67.0775 46.5652 67.0775C40.3492 67.0775 34.3878 64.6982 29.9925 60.4631C25.5971 56.228 23.1278 50.484 23.1278 44.4946C23.1278 38.5052 25.5971 32.7612 29.9925 28.5261C34.3878 24.2909 40.3492 21.9117 46.5652 21.9117ZM46.5652 29.8366C42.5305 29.8366 38.6611 31.3809 35.8082 34.1298C32.9553 36.8787 31.3526 40.607 31.3526 44.4946C31.3526 48.3823 32.9553 52.1103 35.8082 54.8594C38.6611 57.608 42.5305 59.1526 46.5652 59.1526C50.5999 59.1526 54.469 57.608 57.3221 54.8594C60.1748 52.1103 61.7777 48.3823 61.7777 44.4946C61.7777 40.607 60.1748 36.8787 57.3221 34.1298C54.469 31.3809 50.5999 29.8366 46.5652 29.8366ZM70.929 15.7415C72.3818 15.7415 73.7748 16.2975 74.8018 17.2872C75.8292 18.2769 76.4061 19.6192 76.4061 21.0189C76.4061 22.4186 75.8292 23.7609 74.8018 24.7506C73.7748 25.7403 72.3818 26.2963 70.929 26.2963C69.4762 26.2963 68.0832 25.7403 67.0563 24.7506C66.0289 23.7609 65.452 22.4186 65.452 21.0189C65.452 19.6192 66.0289 18.2769 67.0563 17.2872C68.0832 16.2975 69.4762 15.7415 70.929 15.7415Z" fill="#19E2FE"/>
</svg>
