<svg width="31" height="33" viewBox="0 0 31 33" fill="none" xmlns="http://www.w3.org/2000/svg">
<g clip-path="url(#clip0_161_57)">
<path fill-rule="evenodd" clip-rule="evenodd" d="M3.27217 7.1905C5.34164 7.1905 6.66499 5.59341 6.66499 3.61995C6.62532 1.55057 5.34163 0 3.31181 0C1.28328 0 -0.0400301 1.55057 0.000924432 3.61995C-0.0400301 5.59341 1.28331 7.1905 3.27217 7.1905ZM0.167308 10.0112V32.9966H6.45893V10.0112H0.167308ZM11.3345 10.0131C11.4177 12.0345 11.5009 14.4788 11.5009 17.346H11.5035V33H17.7952V19.7438C17.7952 19.0841 17.877 18.4272 18.0435 17.9564C18.4568 16.6412 19.4908 15.2781 21.2302 15.2781C23.5069 15.2781 24.4169 17.2981 24.4169 20.2612V33H30.7087V19.366C30.7087 12.5998 27.6038 9.49721 23.4648 9.49721C20.1116 9.49721 18.0421 11.7047 17.2141 13.1622H17.0899L16.7994 10.0131H11.3345Z" fill="#909090"/>
</g>
<defs>
<clipPath id="clip0_161_57">
<rect width="31" height="33" fill="white"/>
</clipPath>
</defs>
</svg>
