<svg width="32" height="33" viewBox="0 0 32 33" fill="none" xmlns="http://www.w3.org/2000/svg">
<g clip-path="url(#clip0_161_61)">
<path d="M15.9685 0C7.1499 0 0 7.50356 0 16.7584C0 24.611 5.1525 31.1817 12.0988 33C12.0243 32.7738 11.9764 32.5112 11.9764 32.1858V29.3215C11.3283 29.3215 10.2425 29.3215 9.96967 29.3215C8.87716 29.3215 7.90574 28.8286 7.43467 27.9124C6.9117 26.8944 6.82121 25.3372 5.5251 24.3848C5.14053 24.0678 5.43328 23.7061 5.87641 23.755C6.6948 23.998 7.37346 24.5873 8.0122 25.4615C8.64828 26.3372 8.94768 26.5355 10.136 26.5355C10.7122 26.5355 11.5745 26.5006 12.3862 26.3665C12.8227 25.2032 13.5772 24.132 14.4994 23.6265C9.18189 23.0525 6.64423 20.2762 6.64423 16.507C6.64423 14.8842 7.30293 13.3145 8.42206 11.992C8.05478 10.6793 7.59302 8.00212 8.56311 6.98265C10.9557 6.98265 12.4022 8.611 12.7495 9.05091C13.9418 8.62218 15.2513 8.37918 16.6272 8.37918C18.0058 8.37918 19.3206 8.62218 20.5155 9.0537C20.8589 8.61659 22.3067 6.98265 24.7046 6.98265C25.6787 8.00351 25.2116 10.6918 24.8403 12.0018C25.9528 13.3215 26.6075 14.887 26.6075 16.507C26.6075 20.2734 24.0739 23.0483 18.7643 23.6251C20.2254 24.4253 21.2913 26.6737 21.2913 28.3677V32.1858C21.2913 32.3311 21.2607 32.4358 21.2448 32.5601C27.4672 30.2712 31.937 24.0706 31.937 16.7584C31.937 7.50356 24.7871 0 15.9685 0Z" fill="#909090"/>
</g>
<defs>
<clipPath id="clip0_161_61">
<rect width="32" height="33" fill="white"/>
</clipPath>
</defs>
</svg>
