<svg width="92" height="89" viewBox="0 0 92 89" fill="none" xmlns="http://www.w3.org/2000/svg">
<path fill-rule="evenodd" clip-rule="evenodd" d="M10.3421 19.6814C16.4938 19.6814 20.4276 15.4246 20.4276 10.1646C20.3097 4.649 16.4938 0.516174 10.4599 0.516174C4.42992 0.516174 0.496241 4.649 0.617982 10.1646C0.496241 15.4246 4.43001 19.6814 10.3421 19.6814ZM1.11258 27.1995V88.464H19.8151V27.1995H1.11258ZM34.3083 27.2046C34.5556 32.5925 34.8029 39.1074 34.8029 46.7495H34.8105V88.473H53.5132V53.1405C53.5132 51.382 53.7564 49.6312 54.2513 48.3763C55.4801 44.8709 58.5537 41.2378 63.7241 41.2378C70.4919 41.2378 73.1969 46.6217 73.1969 54.5195V88.473H91.8999V52.1334C91.8999 34.0992 82.6703 25.8296 70.3666 25.8296C60.399 25.8296 54.2471 31.7133 51.7858 35.5982H51.4167L50.5531 27.2046H34.3083Z" fill="#19E2FE"/>
</svg>
